<svg fill="#FFFFFF" xmlns="http://www.w3.org/2000/svg"  viewBox="0 0 24 24" width="24px" height="24px"><path d="M20.236,5.64c-0.006-0.012-0.014-0.023-0.021-0.035c-0.322-0.501-0.78-0.885-1.323-1.11	c-1.161-0.481-2.166-0.805-3.069-0.987c-0.639-0.133-1.291,0.201-1.587,0.804l-0.068,0.136c-0.652-0.072-1.354-0.096-2.156-0.078	c-0.822-0.018-1.524,0.006-2.179,0.078L9.767,4.315c-0.298-0.608-0.95-0.936-1.587-0.81C7.273,3.689,6.268,4.013,5.106,4.494	C4.562,4.72,4.105,5.105,3.785,5.608c-2.236,3.486-3.111,7.247-2.678,11.497c0.016,0.15,0.098,0.285,0.224,0.368	c1.696,1.106,3.23,1.897,4.688,2.416c0.633,0.232,1.333-0.02,1.705-0.608l0.758-1.2c-0.548-0.167-1.087-0.358-1.598-0.601	l0.331-0.653c2.918,1.39,6.632,1.392,9.551,0l0.331,0.653c-0.515,0.245-1.058,0.438-1.61,0.605l0.791,1.217	c0.279,0.43,0.743,0.675,1.222,0.675c0.157,0,0.315-0.026,0.469-0.081c1.481-0.528,2.975-1.298,4.7-2.422	c0.126-0.083,0.209-0.218,0.225-0.368C23.326,12.868,22.457,9.117,20.236,5.64z M8.75,14C7.789,14,7,13.096,7,12s0.789-2,1.75-2	s1.75,0.904,1.75,2S9.711,14,8.75,14z M15.25,14c-0.961,0-1.75-0.904-1.75-2s0.789-2,1.75-2S17,10.904,17,12S16.211,14,15.25,14z"/></svg>